<?xml version="1.0" encoding="UTF-8"?>
<!-- Generator: Adobe Illustrator 21.1.0, SVG Export Plug-In . SVG Version: 6.00 Build 0)  -->
<svg version="1.1" id="Layer_1" xmlns="http://www.w3.org/2000/svg" xmlns:xlink="http://www.w3.org/1999/xlink" x="0px" y="0px" width="520" height="81" viewBox="0 0 520 81" style="enable-background:new 0 0 520 81;" xml:space="preserve">
<style type="text/css">
	.st0{fill:url(#SVGID_1_);}
	.st1{fill:url(#SVGID_2_);}
	.st2{fill:url(#SVGID_3_);}
	.st3{fill:url(#SVGID_4_);}
	.st4{fill:url(#SVGID_5_);}
	.st5{fill:url(#SVGID_6_);}
	.st6{fill:url(#SVGID_7_);}
	.st7{fill:url(#SVGID_8_);}
	.st8{fill:url(#SVGID_9_);}
	.st9{fill:url(#SVGID_10_);}
	.st10{fill:#454545;}
	.st11{fill:#C0D850;}
</style>
<g>
	<g>
		<linearGradient id="SVGID_1_" gradientUnits="userSpaceOnUse" x1="49.4719" y1="0.8815" x2="49.4719" y2="69.6662">
			<stop offset="0" style="stop-color:#7FCDC4"/>
			<stop offset="0.2469" style="stop-color:#88CDA9"/>
			<stop offset="0.5415" style="stop-color:#90CC8C"/>
			<stop offset="0.6486" style="stop-color:#9ECF7E"/>
			<stop offset="0.8769" style="stop-color:#B7D65E"/>
			<stop offset="1" style="stop-color:#C0D850"/>
		</linearGradient>
		<path class="st0" d="M62.8,50.9c0,7.4-6,13.3-13.3,13.3c-7.4,0-13.3-6-13.3-13.3c0-4.3,2-8.1,5.2-10.5l8.2,6.6l-2,1.6    c-0.7,0.6-1.2,1.5-1.2,2.5c0,1.8,1.4,3.2,3.2,3.2c1.8,0,3.2-1.4,3.2-3.2c0-1-0.4-1.9-1.1-2.4c-0.1-0.1-0.2-0.1-0.2-0.2L49.5,47    l8.1-6.6l0.1-0.1C60.8,42.8,62.8,46.6,62.8,50.9z"/>
		<linearGradient id="SVGID_2_" gradientUnits="userSpaceOnUse" x1="68.9356" y1="0.8815" x2="68.9356" y2="69.6716">
			<stop offset="0" style="stop-color:#7FCDC4"/>
			<stop offset="0.2469" style="stop-color:#88CDA9"/>
			<stop offset="0.5415" style="stop-color:#90CC8C"/>
			<stop offset="0.6486" style="stop-color:#9ECF7E"/>
			<stop offset="0.8769" style="stop-color:#B7D65E"/>
			<stop offset="1" style="stop-color:#C0D850"/>
		</linearGradient>
		<path class="st1" d="M68.9,0c-7.5,0-13.6,6.1-13.6,13.6c0,3.2,1.1,6.2,3,8.5l1.9,2.9l8-6.4l-1.8-2.8L66,15.1    c-0.2-0.4-0.3-0.8-0.3-1.3c0-1.7,1.4-3.1,3.1-3.1c1.7,0,3.1,1.3,3.1,3.1c0,0.9-0.4,1.8-1.4,2.8l-2.3,2l5.5,8.6l2.4-1.9    c3.8-2.4,6.4-6.7,6.4-11.6C82.6,6.1,76.5,0,68.9,0z"/>
		<linearGradient id="SVGID_3_" gradientUnits="userSpaceOnUse" x1="57.6147" y1="0.8815" x2="57.6147" y2="69.6662">
			<stop offset="0" style="stop-color:#7FCDC4"/>
			<stop offset="0.2469" style="stop-color:#88CDA9"/>
			<stop offset="0.5415" style="stop-color:#90CC8C"/>
			<stop offset="0.6486" style="stop-color:#9ECF7E"/>
			<stop offset="0.8769" style="stop-color:#B7D65E"/>
			<stop offset="1" style="stop-color:#C0D850"/>
		</linearGradient>
		<path class="st2" d="M65.8,33.7l-8.1,6.6l-0.1,0.1l-0.9-0.7c0,0,0,0,0,0l-7.2-5.9L60.2,25L65.8,33.7z"/>
		<linearGradient id="SVGID_4_" gradientUnits="userSpaceOnUse" x1="29.9839" y1="0.8815" x2="29.9839" y2="69.6705">
			<stop offset="0" style="stop-color:#7FCDC4"/>
			<stop offset="0.2469" style="stop-color:#88CDA9"/>
			<stop offset="0.5415" style="stop-color:#90CC8C"/>
			<stop offset="0.6486" style="stop-color:#9ECF7E"/>
			<stop offset="0.8769" style="stop-color:#B7D65E"/>
			<stop offset="1" style="stop-color:#C0D850"/>
		</linearGradient>
		<path class="st3" d="M30,0c7.5,0,13.6,6.1,13.6,13.6c0,3.2-1.1,6.2-3,8.5L38.7,25l-8-6.4l1.8-2.8l0.4-0.7c0.2-0.4,0.3-0.8,0.3-1.3    c0-1.7-1.4-3.1-3.1-3.1c-1.7,0-3.1,1.3-3.1,3.1c0,0.9,0.4,1.8,1.4,2.8l2.3,2l-5.5,8.6l-2.4-1.9c-3.8-2.4-6.4-6.7-6.4-11.6    C16.4,6.1,22.5,0,30,0z"/>
		<linearGradient id="SVGID_5_" gradientUnits="userSpaceOnUse" x1="45.4174" y1="0.8665" x2="45.4174" y2="69.6814">
			<stop offset="0" style="stop-color:#7FCDC4"/>
			<stop offset="0.2469" style="stop-color:#88CDA9"/>
			<stop offset="0.5415" style="stop-color:#90CC8C"/>
			<stop offset="0.6486" style="stop-color:#9ECF7E"/>
			<stop offset="0.8769" style="stop-color:#B7D65E"/>
			<stop offset="1" style="stop-color:#C0D850"/>
		</linearGradient>
		<polygon class="st4" points="57.7,40.4 49.5,47 41.4,40.4 41.3,40.3 33.1,33.7 38.7,25 49.5,33.8   "/>
		<linearGradient id="SVGID_6_" gradientUnits="userSpaceOnUse" x1="52.2086" y1="36.4412" x2="77.1757" y2="17.1999">
			<stop offset="0" style="stop-color:#68C075"/>
			<stop offset="0.1969" style="stop-color:#86CDB3;stop-opacity:0"/>
			<stop offset="0.2383" style="stop-color:#86CDB3;stop-opacity:0"/>
			<stop offset="0.2652" style="stop-color:#7FCAA4;stop-opacity:0.1364"/>
			<stop offset="0.3059" style="stop-color:#75C592;stop-opacity:0.3431"/>
			<stop offset="0.3475" style="stop-color:#6EC286;stop-opacity:0.5543"/>
			<stop offset="0.3901" style="stop-color:#6AC17E;stop-opacity:0.7706"/>
			<stop offset="0.4352" style="stop-color:#68C07C"/>
			<stop offset="0.5233" style="stop-color:#86CDB3;stop-opacity:0"/>
			<stop offset="0.6917" style="stop-color:#63C29E;stop-opacity:0.7228"/>
			<stop offset="0.7358" style="stop-color:#5DC19A"/>
			<stop offset="0.878" style="stop-color:#78C8A9;stop-opacity:0.3465"/>
			<stop offset="0.9534" style="stop-color:#86CDB3;stop-opacity:0"/>
		</linearGradient>
		<path class="st5" d="M72.7,13.6c0,0.1,0,0.1,0,0.2c0,1.1-0.5,2.2-1.6,3.4l0,0l-3,2.6l-6.8,5.4l-11.1,9.1l6.9,5.6l8.3-6.8l8-6.5    l2.5-2l0,0c3.7-2.3,6-6.5,6-11c0,0,0,0,0,0H72.7z"/>

			<linearGradient id="SVGID_7_" gradientUnits="userSpaceOnUse" x1="474.0544" y1="35.2109" x2="500.7065" y2="18.3808" gradientTransform="matrix(-1 0 0 1 521.5933 0)">
			<stop offset="7.772021e-02" style="stop-color:#82CBAB;stop-opacity:0"/>
			<stop offset="0.1921" style="stop-color:#75C39D;stop-opacity:0.3619"/>
			<stop offset="0.3938" style="stop-color:#5FB98A"/>
			<stop offset="0.4493" style="stop-color:#6CBF95;stop-opacity:0.7321"/>
			<stop offset="0.5417" style="stop-color:#7CC8A5;stop-opacity:0.2861"/>
			<stop offset="0.601" style="stop-color:#82CBAB;stop-opacity:0"/>
			<stop offset="0.6788" style="stop-color:#62BB9C"/>
			<stop offset="0.7797" style="stop-color:#69BE9F;stop-opacity:0.6391"/>
			<stop offset="0.9221" style="stop-color:#7CC8A8;stop-opacity:0.1304"/>
			<stop offset="0.9585" style="stop-color:#82CBAB;stop-opacity:0"/>
		</linearGradient>
		<path class="st6" d="M26.3,13.6c0,0.1,0,0.1,0,0.2c0,1.1,0.5,2.2,1.6,3.4l0,0l3,2.6l6.8,5.4l11.1,9.1L42,39.9l-8.3-6.8l-8-6.5    l-2.5-2l0,0c-3.7-2.3-6-6.5-6-11c0,0,0,0,0,0H26.3z"/>
		<linearGradient id="SVGID_8_" gradientUnits="userSpaceOnUse" x1="48.6431" y1="46.4598" x2="41.8044" y2="56.7483">
			<stop offset="0" style="stop-color:#73C160"/>
			<stop offset="0.1705" style="stop-color:#7AC360;stop-opacity:0.7409"/>
			<stop offset="0.3905" style="stop-color:#8BC75E;stop-opacity:0.4066"/>
			<stop offset="0.6366" style="stop-color:#A5D05A;stop-opacity:3.261226e-02"/>
			<stop offset="0.658" style="stop-color:#A8D05A;stop-opacity:0"/>
		</linearGradient>
		<path class="st7" d="M48.7,63.4c-6.6-0.4-11.8-5.9-11.8-12.5c0-3.7,1.6-7.1,4.4-9.5l0.6-0.5l7,5.6L46.9,48    c-0.9,0.8-1.5,1.9-1.5,3.1c0,1.9,1.4,3.5,3.2,3.9V63.4z"/>
		<linearGradient id="SVGID_9_" gradientUnits="userSpaceOnUse" x1="79.5597" y1="0.8771" x2="79.5597" y2="69.6661">
			<stop offset="0" style="stop-color:#7FCDC4"/>
			<stop offset="0.2469" style="stop-color:#88CDA9"/>
			<stop offset="0.5415" style="stop-color:#90CC8C"/>
			<stop offset="0.6486" style="stop-color:#9ECF7E"/>
			<stop offset="0.8769" style="stop-color:#B7D65E"/>
			<stop offset="1" style="stop-color:#C0D850"/>
		</linearGradient>
		<path class="st8" d="M97.6,69.5l-3.7,2.4c-1.3,0.9-3.1,0.5-4-0.9L65.8,33.7L60.2,25l8-6.4l5.1,8l0.4,0.6l24.7,38.3    C99.3,66.8,98.9,68.6,97.6,69.5z"/>
		<linearGradient id="SVGID_10_" gradientUnits="userSpaceOnUse" x1="19.3577" y1="0.8731" x2="19.3577" y2="69.6659">
			<stop offset="0" style="stop-color:#7FCDC4"/>
			<stop offset="0.2469" style="stop-color:#88CDA9"/>
			<stop offset="0.5415" style="stop-color:#90CC8C"/>
			<stop offset="0.6486" style="stop-color:#9ECF7E"/>
			<stop offset="0.8769" style="stop-color:#B7D65E"/>
			<stop offset="1" style="stop-color:#C0D850"/>
		</linearGradient>
		<path class="st9" d="M1.3,69.5l3.7,2.4c1.3,0.9,3.1,0.5,4-0.9l24.1-37.3l5.6-8.7l-8-6.4l-5.1,8l-0.4,0.6L0.5,65.5    C-0.4,66.8,0,68.6,1.3,69.5z"/>
	</g>
</g>
<g>
	<path class="st10" d="M146.9,50.5V35.6c0-4.4-1.9-6.5-4.8-6.5c-3,0-5.1,2.4-5.1,6.3v15.2h-5.6V34.9c0-4.3-2-5.9-4.9-5.9   c-2.7,0-4.9,1.7-4.9,6.3v15.2H116V24.7h5.4v2.9c1.7-2.6,4.1-3.4,6.5-3.4c3,0,5.4,1.3,7.2,4.3c1.4-2.5,4.1-4.3,7.5-4.3   c5.4,0,9.8,3.2,9.8,11.1v15.2H146.9z"/>
	<path class="st10" d="M171,24.3c7.2,0,11.2,3.5,12.1,4.2v22h-5.5v-4.4c-1.4,2.6-4.1,4.8-7.9,4.8c-7.8,0-11.9-5.7-11.9-13.2   C157.9,30.2,162.6,24.3,171,24.3z M170.3,45.9c4.4,0,7.3-4,7.3-10.4v-4.5c-0.6-0.5-2.6-1.7-6.4-1.7c-5.1,0-7.7,4-7.7,8.6   C163.5,42.4,165.5,45.9,170.3,45.9z"/>
	<path class="st10" d="M207.8,50.5V37.1c0-5.5-1.5-8.1-5.6-8.1c-4.1,0-6.7,3.7-6.7,8.4v13.1h-5.6V24.7h5.6v3.8   c1.5-2.6,4.4-4.1,7.7-4.1c7.4,0,10.3,4.6,10.3,12.7v13.5H207.8z"/>
	<path class="st10" d="M231.9,50.8H229c-6.4,0-8.6-3-8.6-10V29.3h-4.5l1.2-4.6h3.3v-5.2l5.6-1.2v6.4h6.4v4.6h-6.4v11.6   c0,4.8,1.2,5.6,6.9,5.1L231.9,50.8z"/>
	<path class="st10" d="M240.6,19.9c-1.9,0-3.3-1.2-3.3-3.2c0-1.9,1.5-3,3.3-3c1.9,0,3.4,1.1,3.4,3.1C244,18.8,242.6,19.9,240.6,19.9   z M237.9,50.5V24.7h5.6v25.8H237.9z"/>
	<path class="st10" d="M249.4,37.6c0-8.4,5.7-13.4,13.6-13.4c4.9,0,8.3,2.4,8.8,2.7l-1.2,4.9c0,0-3.3-2.7-7.6-2.7   c-4.6,0-8.2,3-8.2,8.4c0,5.4,3.5,8.6,8.1,8.6c4,0,6.8-2.3,7.2-2.7l2.5,4.5c-3.4,2.2-6.5,3-9.7,3C255.2,50.9,249.4,45.9,249.4,37.6z   "/>
	<path class="st10" d="M288.6,50.9c-7.4,0-13.3-4.8-13.3-13.3c0-8.5,5.9-13.3,13.3-13.3c7.5,0,13.3,4.9,13.3,13.4   C302,46.1,296.1,50.9,288.6,50.9z M288.6,29.2c-4.2,0-7.7,3.1-7.7,8.5c0,5.4,3.5,8.4,7.7,8.4c4.4,0,7.8-3,7.8-8.3   C296.4,32.3,293,29.2,288.6,29.2z"/>
	<path class="st10" d="M319.9,29.3c-5.9,0-6.7,4.6-6.7,10v11.2h-5.6V24.7h5.6v3.9c0.9-2.7,3.6-4.3,6.5-4.3c0.6,0,0.9,0,1.5,0.1   c-0.4,1.8-0.5,3.2-0.9,5H319.9z"/>
	<path class="st10" d="M328.3,38.8c0,4.9,3.6,7.4,8,7.4c3.6,0,5.6-1.5,6.7-2.5l2.8,4.2c-3.3,2.3-6,3.1-9.5,3.1   c-8.5,0-13.6-5.2-13.6-13.3c0-8,5.3-13.3,12.4-13.3c6.5,0,11.6,4.4,11.6,11.9c0,1.2-0.1,2.6-0.1,2.6H328.3z M328.6,34.4h13   c-0.4-3.7-3.1-5.6-6.4-5.6C332.2,28.8,329.6,30.7,328.6,34.4z"/>
	<path class="st11" d="M367.1,31.5c-2.7-1.9-5-2.5-7-2.5c-1.7,0-3.5,0.7-3.5,2.5c0,4.8,12.9,2.5,12.9,11.5c0,4.8-3.8,7.8-9.7,7.8   c-2.7,0-5.9-0.5-9.7-3c1-1.4,2.8-4,2.8-4c2,1.4,4.6,2.2,6.7,2.2c2.8,0,4.1-1.2,4.1-3c0-5.3-12.6-2.5-12.6-11.7c0-4.6,3.7-7.3,9-7.3   c3.3,0,6.1,1.2,7.9,2.5L367.1,31.5z"/>
	<path class="st11" d="M378.9,38.8c0,4.9,3.6,7.4,8,7.4c3.6,0,5.6-1.5,6.7-2.5l2.8,4.2c-3.3,2.3-6,3.1-9.5,3.1   c-8.5,0-13.6-5.2-13.6-13.3c0-8,5.3-13.3,12.4-13.3c6.5,0,11.6,4.4,11.6,11.9c0,1.2-0.1,2.6-0.1,2.6H378.9z M379.2,34.4h13   c-0.4-3.7-3.1-5.6-6.4-5.6C382.8,28.8,380.2,30.7,379.2,34.4z"/>
	<path class="st11" d="M414.6,24.3c7.2,0,11.2,3.5,12.1,4.2v22h-5.5v-4.4c-1.4,2.6-4.1,4.8-7.9,4.8c-7.8,0-11.9-5.7-11.9-13.2   C401.4,30.2,406.1,24.3,414.6,24.3z M413.9,45.9c4.4,0,7.3-4,7.3-10.4v-4.5c-0.6-0.5-2.6-1.7-6.4-1.7c-5.1,0-7.7,4-7.7,8.6   C407.1,42.4,409.1,45.9,413.9,45.9z"/>
	<path class="st11" d="M445.7,29.3c-5.9,0-6.7,4.6-6.7,10v11.2h-5.6V24.7h5.6v3.9c0.9-2.7,3.6-4.3,6.5-4.3c0.6,0,0.9,0,1.5,0.1   c-0.4,1.8-0.5,3.2-0.9,5H445.7z"/>
	<path class="st11" d="M448.5,37.6c0-8.4,5.7-13.4,13.6-13.4c4.9,0,8.3,2.4,8.8,2.7l-1.2,4.9c0,0-3.3-2.7-7.6-2.7   c-4.6,0-8.2,3-8.2,8.4c0,5.4,3.5,8.6,8.1,8.6c4,0,6.8-2.3,7.2-2.7l2.5,4.5c-3.4,2.2-6.5,3-9.7,3C454.3,50.9,448.5,45.9,448.5,37.6z   "/>
	<path class="st11" d="M494.3,50.5V37c0-5.5-1.5-8-5.6-8c-4.1,0-6.7,3.7-6.7,8.4v13.1h-5.6V12.8l5.6-1.1v16.8   c1.5-2.6,4.7-4.1,7.9-4.1c7.2,0,10.1,4.5,10.1,12.6v13.6H494.3z"/>
</g>
</svg>