<?xml version="1.0" ?><svg style="enable-background:new 0 0 128 128;" version="1.1" viewBox="0 0 128 128" xml:space="preserve" xmlns="http://www.w3.org/2000/svg" xmlns:xlink="http://www.w3.org/1999/xlink"><style type="text/css">
	.st0{fill:#74CBDE;}
	.st1{fill:#B3F4FB;}
	.st2{fill:#301F00;}
	.st3{fill:#2FB0C1;}
	.st4{fill:#F2F2F2;}
	.st5{fill:#CCCCCC;}
	.st6{fill:#FFFFFF;}
	.st7{fill:#629EE1;}
	.st8{fill:#4180D8;}
	.st9{fill:#FF0013;}
	.st10{fill:#FF4D4D;}
	.st11{fill:#C80004;}
	.st12{fill:#FFD81A;}
	.st13{fill:#FFEA55;}
	.st14{fill:#FFB6C6;}
	.st15{fill:#FF97A9;}
	.st16{fill:#FFD0DC;}
	.st17{fill:#FF7287;}
	.st18{fill:#FDAD4C;}
	.st19{fill:#EB9129;}
	.st20{fill:#C13202;}
	.st21{fill:#CA4508;}
	.st22{fill:#FEC769;}
	.st23{fill:#FFEA9A;}
	.st24{fill:#FFDB69;}
	.st25{fill:#999999;}
	.st26{fill:#808080;}
	.st27{fill:#EBEBEB;}
	.st28{opacity:0.8;fill:#B3B3B3;}
	.st29{fill:#BCBCBC;}
	.st30{fill:#A39095;}
	.st31{fill:#B3B3B3;}
	.st32{fill:#EDFFC5;}
	.st33{fill:#F5FFD9;}
	.st34{opacity:0.8;fill:#FCFFF0;}
	.st35{fill:#8CC63F;}
	.st36{fill:#5AA319;}
	.st37{fill:#ACDC57;}
	.st38{fill:#C69452;}
	.st39{fill:#8A4900;}
	.st40{fill:#B17637;}
	.st41{fill:#E1D6BA;}
	.st42{fill:#CCBB92;}
	.st43{fill:#D8AD68;}
	.st44{fill:#253542;}
	.st45{fill:#2B4753;}
	.st46{fill:#FFA227;}
	.st47{fill:#0F171C;}
	.st48{fill:#FFBBBB;}
	.st49{fill:#A9A69C;}
	.st50{fill:#827E74;}
	.st51{fill:#C0BEB4;}
	.st52{fill:#333333;}
	.st53{fill:#FFE581;}
	.st54{fill:#6F4A38;}
	.st55{fill:#FFF5AE;}
	.st56{fill:#FFD252;}
	.st57{fill:#825C4D;}
	.st58{fill:#C97F4E;}
	.st59{fill:#B86538;}
	.st60{fill:#666666;}
	.st61{fill:#4D4D4D;}
	.st62{fill:#D6925E;}
	.st63{fill:#F9C0A7;}
	.st64{fill:#F7AD90;}
	.st65{fill:#D38F5B;}
	.st66{fill:#CD7C4F;}
	.st67{fill:#C1693E;}
	.st68{fill:#A05B38;}
	.st69{fill:#F1D4A5;}
	.st70{fill:#DD9665;}
	.st71{fill:#E7B777;}
	.st72{fill:#4A290A;}
	.st73{fill:#53770C;}
	.st74{fill:#699010;}
	.st75{fill:#884326;}
	.st76{fill:#F6D5A9;}
	.st77{fill:#F1C087;}
	.st78{fill:#FFD4C5;}
	.st79{fill:#FF9797;}
	.st80{fill:#FF8484;}
	.st81{fill:#FFAAAA;}
	.st82{fill:#7C0000;}
	.st83{fill:#A6B855;}
	.st84{fill:#C3D272;}
	.st85{fill:#7D942D;}
	.st86{fill:#68782F;}
	.st87{fill:#4F5E20;}
	.st88{fill:#81923E;}
	.st89{fill:#EE6B2B;}
	.st90{fill:#D2501E;}
	.st91{fill:#FF6868;}
	.st92{fill:#F85E28;}
	.st93{fill:#D5DAE0;}
	.st94{fill:#BCC4CD;}
	.st95{fill:#FDB62E;}
	.st96{fill:#472D07;}
	.st97{fill:#FC9C1B;}
	.st98{fill:#2D1A03;}
	.st99{fill:#FFFFD5;}
	.st100{fill:#FED041;}
	.st101{fill:#61400B;}
	.st102{fill:#FFFF95;}
	.st103{fill:#D7D3C9;}
	.st104{fill:#E8E3DA;}
	.st105{fill:#DDD6CA;}
	.st106{fill:#9E9992;}
	.st107{fill:#847E77;}
	.st108{fill:#F0EDE7;}
	.st109{fill:#88D3ED;}
	.st110{fill:#68C1E4;}
	.st111{fill:#A8E5F6;}
	.st112{fill:#E6E6E6;}
	.st113{fill:#D6D6D6;}
</style><g id="Fish"/><g id="Chicken"/><g id="Pig"/><g id="Dog"/><g id="Cat"/><g id="Bird"/><g id="Koala"><g id="Bamboo"><rect class="st18" height="121.9" width="17.5" x="79.4" y="3.3"/><path class="st2" d="M96.9,126.8c-0.8,0-1.5-0.7-1.5-1.5V3.3c0-0.8,0.7-1.5,1.5-1.5s1.5,0.7,1.5,1.5v121.9    C98.4,126.1,97.8,126.8,96.9,126.8z"/><path class="st2" d="M79.4,126.8c-0.8,0-1.5-0.7-1.5-1.5V3.3c0-0.8,0.7-1.5,1.5-1.5s1.5,0.7,1.5,1.5v121.9    C80.9,126.1,80.3,126.8,79.4,126.8z"/></g><g id="Body_6_"><path class="st25" d="M87.9,109.3h-8.5c1-2.7,1.5-5.7,1.5-8.8c0-3.1-0.6-6-1.8-8.6h8.6c3.1,0,5.7-2.6,5.7-5.7s-2.6-5.7-5.7-5.7H70    c0,0-4.4,0-6.9,0c-9.9,0-20.8,13.5-20.8,24.5c0,11,11,15.5,20.8,15.5c2.6,0,6.9,0,6.9,0h18c3.1,0,5.6-2.5,5.6-5.6v0    C93.5,111.8,91,109.3,87.9,109.3z"/><path class="st26" d="M87.8,80.5H70c0,0-4.4,0-6.9,0c-5.5,0-11.4,4.2-15.4,9.8c4.7,1.1,10,1.6,15.4,1.6c12,0,22.8-2.4,29.9-8    C92.2,81.9,90.2,80.5,87.8,80.5z"/><path class="st2" d="M87.9,122H63.1c-11.1,0-22.3-5.3-22.3-17c0-12.1,11.9-26,22.3-26h24.7c4,0,7.2,3.2,7.2,7.2    c0,4-3.2,7.2-7.2,7.2h-6.5c0.7,2.3,1.1,4.7,1.1,7.1c0,2.6-0.3,5-0.9,7.3h6.4c3.9,0,7.1,3.2,7.1,7.1C95,118.8,91.9,122,87.9,122z     M63.1,82c-8.8,0-19.3,12.5-19.3,23c0,9.7,9.7,14,19.3,14h24.8c2.3,0,4.1-1.8,4.1-4.1c0-2.3-1.8-4.1-4.1-4.1h-8.5    c-0.5,0-1-0.2-1.2-0.6c-0.3-0.4-0.3-0.9-0.2-1.4c0.9-2.5,1.4-5.3,1.4-8.3c0-2.8-0.5-5.5-1.6-8c-0.2-0.5-0.1-1,0.1-1.4    s0.7-0.7,1.3-0.7h8.6c2.3,0,4.2-1.9,4.2-4.2c0-2.3-1.9-4.2-4.2-4.2H63.1z"/></g><g id="Head_14_"><g id="Ear_3_"><g><path class="st25" d="M51.2,33.3c1-0.8,1.7-2.1,1.7-3.5c0,0,0,0,0,0c0,0,0,0,0,0c0-1.4-0.7-2.6-1.7-3.4c0.7-1.1,0.9-2.5,0.5-3.8      c-0.4-1.3-1.4-2.3-2.7-2.8c0.3-1.3,0.1-2.6-0.7-3.8c-0.8-1.1-2.1-1.7-3.4-1.8c-0.1-1.3-0.7-2.5-1.8-3.4c-1.1-0.8-2.5-1-3.8-0.7      c-0.5-1.2-1.5-2.2-2.8-2.6c-1.3-0.4-2.7-0.2-3.8,0.5c-0.8-1-2.1-1.6-3.5-1.6c-1.4,0-2.6,0.7-3.5,1.7c-1.1-0.7-2.5-0.9-3.8-0.5      C20.6,8,19.7,9,19.2,10.2c-1.3-0.3-2.6-0.1-3.8,0.7c-1.1,0.8-1.7,2.1-1.8,3.4c-1.3,0.1-2.5,0.7-3.4,1.8c-0.8,1.1-1,2.5-0.7,3.8      c-1.2,0.5-2.2,1.5-2.6,2.8c-0.4,1.3-0.2,2.7,0.5,3.8c-1,0.8-1.6,2.1-1.6,3.5c0,1.4,0.7,2.6,1.7,3.5c-0.7,1.1-0.9,2.5-0.5,3.8      c0.4,1.3,1.4,2.3,2.6,2.8c-0.3,1.3-0.1,2.6,0.7,3.8v0c0.8,1.1,2.1,1.7,3.4,1.8c0.1,1.3,0.7,2.5,1.8,3.4c1.1,0.8,2.5,1,3.8,0.7      c0.5,1.2,1.5,2.2,2.8,2.6h0c1.3,0.4,2.7,0.2,3.8-0.5c0.8,1,2.1,1.6,3.5,1.6c1.4,0,2.6-0.7,3.5-1.7c1.1,0.7,2.5,0.9,3.8,0.5v0      c1.3-0.4,2.3-1.4,2.8-2.6c1.3,0.3,2.6,0.1,3.8-0.7c1.1-0.8,1.7-2.1,1.8-3.4c1.3-0.1,2.5-0.7,3.4-1.8c0.8-1.1,1-2.5,0.7-3.8      c1.2-0.5,2.2-1.4,2.6-2.8h0C52.1,35.8,51.9,34.4,51.2,33.3z"/><path class="st2" d="M29.3,54.9c-1.4,0-2.7-0.5-3.7-1.3c-1.3,0.5-2.7,0.5-4,0.1c-1.3-0.4-2.4-1.3-3.2-2.4      c-1.4,0.1-2.7-0.3-3.8-1.1c-1.1-0.8-1.9-2-2.2-3.3c-1.3-0.3-2.5-1.1-3.3-2.2c-0.8-1.1-1.2-2.5-1.1-3.8c-1.1-0.7-2-1.8-2.4-3.1      c-0.4-1.3-0.4-2.7,0.1-4c-0.9-1.1-1.3-2.4-1.3-3.7c0-1.4,0.5-2.7,1.3-3.7c-0.5-1.3-0.5-2.7-0.1-4c0.4-1.3,1.3-2.4,2.4-3.2      c-0.1-1.4,0.3-2.7,1.1-3.8c0.8-1.1,2-1.9,3.3-2.3c0.3-1.3,1.1-2.5,2.2-3.3c1.1-0.8,2.5-1.2,3.8-1.1c0.7-1.1,1.8-2,3.1-2.4      c1.3-0.4,2.7-0.4,4,0.1c1.1-0.9,2.4-1.3,3.7-1.3c0,0,0,0,0,0c1.4,0,2.7,0.5,3.7,1.3c1.3-0.5,2.7-0.5,4-0.1      c1.3,0.4,2.4,1.3,3.2,2.4c1.4-0.1,2.7,0.3,3.8,1.1c1.1,0.8,1.9,2,2.3,3.3c1.3,0.3,2.5,1.1,3.3,2.2c0.8,1.1,1.2,2.5,1.1,3.8      c1.1,0.7,2,1.8,2.4,3.1s0.4,2.7-0.1,4c0.9,1.1,1.3,2.4,1.3,3.7c0,0,0,0,0,0.1c0,0,0,0,0,0c0,1.4-0.5,2.7-1.3,3.7      c0.5,1.3,0.5,2.7,0.1,4s-1.3,2.4-2.4,3.2c0.1,1.4-0.3,2.7-1.1,3.8c-0.8,1.1-2,1.9-3.3,2.2c-0.4,1.3-1.1,2.5-2.2,3.3      c-1.1,0.8-2.5,1.2-3.8,1.1c-0.7,1.1-1.8,2-3.2,2.4c-1.3,0.4-2.7,0.4-4-0.1C32,54.4,30.7,54.9,29.3,54.9      C29.3,54.9,29.3,54.9,29.3,54.9z M25.9,50.2c0.4,0,0.9,0.2,1.2,0.5c0.6,0.7,1.4,1.1,2.3,1.1c0,0,0,0,0,0c0.9,0,1.7-0.4,2.3-1.1      c0.5-0.6,1.3-0.7,2-0.3c0.8,0.5,1.7,0.6,2.5,0.3c0.8-0.3,1.5-0.9,1.8-1.8c0.3-0.7,1-1.1,1.8-0.9c0.9,0.2,1.8,0.1,2.5-0.5      c0.7-0.5,1.2-1.3,1.2-2.2c0-0.8,0.6-1.4,1.4-1.4c0.9-0.1,1.7-0.5,2.2-1.2c0.5-0.7,0.7-1.6,0.5-2.5c-0.2-0.7,0.2-1.5,0.9-1.8      c0.9-0.3,1.5-1,1.8-1.8s0.1-1.8-0.3-2.5c-0.4-0.6-0.3-1.5,0.3-2c0.7-0.6,1.1-1.4,1.1-2.2c0,0,0,0,0-0.1c0,0,0-0.1,0-0.1      c0-0.9-0.4-1.7-1.1-2.2c-0.6-0.5-0.7-1.3-0.3-2c0.5-0.8,0.6-1.7,0.3-2.5s-0.9-1.5-1.8-1.8c-0.7-0.3-1.1-1-0.9-1.8      c0.2-0.9,0.1-1.8-0.5-2.5c-0.5-0.7-1.3-1.1-2.3-1.2c-0.8,0-1.4-0.6-1.4-1.4c-0.1-0.9-0.5-1.7-1.2-2.2c-0.7-0.5-1.6-0.7-2.5-0.5      c-0.7,0.2-1.5-0.2-1.8-0.9c-0.3-0.8-1-1.5-1.9-1.8c-0.8-0.3-1.8-0.1-2.5,0.4c-0.6,0.4-1.5,0.3-2-0.3c-0.6-0.7-1.4-1.1-2.3-1.1      c0,0,0,0,0,0c-0.9,0-1.7,0.4-2.3,1.1c-0.5,0.6-1.3,0.7-2,0.3c-0.8-0.5-1.7-0.6-2.5-0.3c-0.8,0.3-1.5,0.9-1.8,1.8      c-0.3,0.7-1,1.1-1.8,0.9c-0.9-0.2-1.8-0.1-2.5,0.5c-0.7,0.5-1.1,1.3-1.2,2.2c0,0.8-0.6,1.4-1.4,1.4c-0.9,0.1-1.7,0.5-2.2,1.2      c-0.5,0.7-0.7,1.6-0.5,2.5c0.2,0.7-0.2,1.5-0.9,1.8c-0.8,0.3-1.5,1-1.8,1.9s-0.1,1.8,0.3,2.5c0.4,0.6,0.3,1.5-0.3,2      c-0.7,0.6-1.1,1.4-1.1,2.3c0,0.9,0.4,1.7,1.1,2.3c0.6,0.5,0.7,1.3,0.3,2c-0.5,0.8-0.6,1.7-0.3,2.5s0.9,1.5,1.8,1.8      c0.7,0.3,1.1,1,0.9,1.8c-0.2,0.9-0.1,1.8,0.5,2.5c0.5,0.7,1.3,1.2,2.2,1.2c0.8,0,1.4,0.6,1.4,1.4c0.1,0.9,0.5,1.7,1.2,2.2      c0.7,0.5,1.6,0.7,2.5,0.5c0.7-0.2,1.5,0.2,1.8,0.9c0.3,0.8,1,1.5,1.8,1.8c0.8,0.3,1.8,0.1,2.5-0.3      C25.3,50.3,25.6,50.2,25.9,50.2z"/><circle class="st14" cx="29.3" cy="29.9" r="13"/><path class="st2" d="M29.3,44.4c-8,0-14.5-6.5-14.5-14.5s6.5-14.5,14.5-14.5s14.5,6.5,14.5,14.5S37.3,44.4,29.3,44.4z       M29.3,18.4c-6.3,0-11.5,5.2-11.5,11.5S23,41.4,29.3,41.4s11.5-5.2,11.5-11.5S35.6,18.4,29.3,18.4z"/></g><g><path class="st25" d="M118.8,33.3c1-0.8,1.7-2.1,1.7-3.5c0,0,0,0,0,0c0,0,0,0,0,0c0-1.4-0.7-2.6-1.7-3.4      c0.7-1.1,0.9-2.5,0.5-3.8c-0.4-1.3-1.4-2.3-2.7-2.8c0.3-1.3,0.1-2.6-0.7-3.8c-0.8-1.1-2.1-1.7-3.4-1.8c-0.1-1.3-0.7-2.5-1.8-3.4      c-1.1-0.8-2.5-1-3.8-0.7c-0.5-1.2-1.5-2.2-2.8-2.6c-1.3-0.4-2.7-0.2-3.8,0.5c-0.8-1-2.1-1.6-3.5-1.6c-1.4,0-2.6,0.7-3.5,1.7      c-1.1-0.7-2.5-0.9-3.8-0.5C88.3,8,87.3,9,86.8,10.2c-1.3-0.3-2.6-0.1-3.8,0.7c-1.1,0.8-1.7,2.1-1.8,3.4      c-1.3,0.1-2.5,0.7-3.4,1.8c-0.8,1.1-1,2.5-0.7,3.8c-1.2,0.5-2.2,1.5-2.6,2.8c-0.4,1.3-0.2,2.7,0.5,3.8c-1,0.8-1.6,2.1-1.6,3.5      c0,1.4,0.7,2.6,1.7,3.5c-0.7,1.1-0.9,2.5-0.5,3.8c0.4,1.3,1.4,2.3,2.6,2.8c-0.3,1.3-0.1,2.6,0.7,3.8v0c0.8,1.1,2.1,1.7,3.4,1.8      c0.1,1.3,0.7,2.5,1.8,3.4c1.1,0.8,2.5,1,3.8,0.7c0.5,1.2,1.5,2.2,2.8,2.6h0c1.3,0.4,2.7,0.2,3.8-0.5c0.8,1,2.1,1.6,3.5,1.6      c1.4,0,2.6-0.7,3.5-1.7c1.1,0.7,2.5,0.9,3.8,0.5v0c1.3-0.4,2.3-1.4,2.8-2.6c1.3,0.3,2.6,0.1,3.8-0.7c1.1-0.8,1.7-2.1,1.8-3.4      c1.3-0.1,2.5-0.7,3.4-1.8c0.8-1.1,1-2.5,0.7-3.8c1.2-0.5,2.2-1.4,2.6-2.8h0C119.7,35.8,119.5,34.4,118.8,33.3z"/><path class="st2" d="M96.9,54.9c-1.4,0-2.7-0.5-3.7-1.3c-1.3,0.5-2.7,0.5-4,0.1c-1.3-0.4-2.4-1.3-3.2-2.4      c-1.4,0.1-2.7-0.3-3.8-1.1c-1.1-0.8-1.9-2-2.2-3.3c-1.3-0.3-2.5-1.1-3.3-2.2c-0.8-1.1-1.2-2.5-1.1-3.8c-1.1-0.7-2-1.8-2.4-3.1      c-0.4-1.3-0.4-2.7,0.1-4c-0.9-1.1-1.3-2.4-1.3-3.7c0-1.4,0.5-2.7,1.3-3.7c-0.5-1.3-0.5-2.7-0.1-4c0.4-1.3,1.3-2.4,2.4-3.2      c-0.1-1.4,0.3-2.7,1.1-3.8c0.8-1.1,2-1.9,3.3-2.3c0.3-1.3,1.1-2.5,2.2-3.3c1.1-0.8,2.5-1.2,3.8-1.1c0.7-1.1,1.8-2,3.1-2.4      c1.3-0.4,2.7-0.4,4,0.1c1.1-0.9,2.4-1.3,3.7-1.3c0,0,0,0,0,0c1.4,0,2.7,0.5,3.7,1.3c1.3-0.5,2.7-0.5,4-0.1      c1.3,0.4,2.4,1.3,3.2,2.4c1.4-0.1,2.7,0.3,3.8,1.1c1.1,0.8,1.9,2,2.3,3.3c1.3,0.3,2.5,1.1,3.3,2.2c0.8,1.1,1.2,2.5,1.1,3.8      c1.1,0.7,2,1.8,2.4,3.1s0.4,2.7-0.1,4c0.9,1.1,1.3,2.4,1.3,3.7c0,0,0,0,0,0.1c0,0,0,0,0,0c0,1.4-0.5,2.7-1.3,3.7      c0.5,1.3,0.5,2.7,0.1,4s-1.3,2.4-2.4,3.2c0.1,1.4-0.3,2.7-1.1,3.8c-0.8,1.1-2,1.9-3.3,2.2c-0.4,1.3-1.1,2.5-2.2,3.3      c-1.1,0.8-2.5,1.2-3.8,1.1c-0.7,1.1-1.8,2-3.2,2.4c-1.3,0.4-2.7,0.4-4-0.1C99.6,54.4,98.3,54.9,96.9,54.9      C96.9,54.9,96.9,54.9,96.9,54.9z M93.5,50.2c0.4,0,0.9,0.2,1.2,0.5c0.6,0.7,1.4,1.1,2.3,1.1c0,0,0,0,0,0c0.9,0,1.7-0.4,2.3-1.1      c0.5-0.6,1.3-0.7,2-0.3c0.8,0.5,1.7,0.6,2.5,0.3c0.8-0.3,1.5-0.9,1.8-1.8c0.3-0.7,1-1.1,1.8-0.9c0.9,0.2,1.8,0.1,2.5-0.5      c0.7-0.5,1.2-1.3,1.2-2.2c0-0.8,0.6-1.4,1.4-1.4c0.9-0.1,1.7-0.5,2.2-1.2c0.5-0.7,0.7-1.6,0.5-2.5c-0.2-0.7,0.2-1.5,0.9-1.8      c0.9-0.3,1.5-1,1.8-1.8s0.1-1.8-0.3-2.5c-0.4-0.6-0.3-1.5,0.3-2c0.7-0.6,1.1-1.4,1.1-2.2c0,0,0,0,0-0.1c0,0,0-0.1,0-0.1      c0-0.9-0.4-1.7-1.1-2.2c-0.6-0.5-0.7-1.3-0.3-2c0.5-0.8,0.6-1.7,0.3-2.5s-0.9-1.5-1.8-1.8c-0.7-0.3-1.1-1-0.9-1.8      c0.2-0.9,0.1-1.8-0.5-2.5c-0.5-0.7-1.3-1.1-2.3-1.2c-0.8,0-1.4-0.6-1.4-1.4c-0.1-0.9-0.5-1.7-1.2-2.2c-0.7-0.5-1.6-0.7-2.5-0.5      c-0.7,0.2-1.5-0.2-1.8-0.9c-0.3-0.8-1-1.5-1.9-1.8c-0.8-0.3-1.8-0.1-2.5,0.4c-0.6,0.4-1.5,0.3-2-0.3c-0.6-0.7-1.4-1.1-2.3-1.1      c0,0,0,0,0,0c-0.9,0-1.7,0.4-2.3,1.1c-0.5,0.6-1.3,0.7-2,0.3c-0.8-0.5-1.7-0.6-2.5-0.3c-0.8,0.3-1.5,0.9-1.8,1.8      c-0.3,0.7-1,1.1-1.8,0.9c-0.9-0.2-1.8-0.1-2.5,0.5c-0.7,0.5-1.1,1.3-1.2,2.2c0,0.8-0.6,1.4-1.4,1.4c-0.9,0.1-1.7,0.5-2.2,1.2      c-0.5,0.7-0.7,1.6-0.5,2.5c0.2,0.7-0.2,1.5-0.9,1.8c-0.8,0.3-1.5,1-1.8,1.9s-0.1,1.8,0.3,2.5c0.4,0.6,0.3,1.5-0.3,2      c-0.7,0.6-1.1,1.4-1.1,2.3c0,0.9,0.4,1.7,1.1,2.3c0.6,0.5,0.7,1.3,0.3,2c-0.5,0.8-0.6,1.7-0.3,2.5s0.9,1.5,1.8,1.8      c0.7,0.3,1.1,1,0.9,1.8c-0.2,0.9-0.1,1.8,0.5,2.5c0.5,0.7,1.3,1.2,2.2,1.2c0.8,0,1.4,0.6,1.4,1.4c0.1,0.9,0.5,1.7,1.2,2.2      c0.7,0.5,1.6,0.7,2.5,0.5c0.7-0.2,1.5,0.2,1.8,0.9c0.3,0.8,1,1.5,1.8,1.8c0.8,0.3,1.8,0.1,2.5-0.3      C92.9,50.3,93.2,50.2,93.5,50.2z"/><circle class="st14" cx="96.9" cy="29.9" r="13"/><path class="st2" d="M96.9,44.4c-8,0-14.5-6.5-14.5-14.5s6.5-14.5,14.5-14.5s14.5,6.5,14.5,14.5S104.9,44.4,96.9,44.4z       M96.9,18.4c-6.3,0-11.5,5.2-11.5,11.5s5.2,11.5,11.5,11.5s11.5-5.2,11.5-11.5S103.3,18.4,96.9,18.4z"/></g></g><g id="Head"><path class="st25" d="M24.1,57.8c0,20.4,17.5,28,39,28c21.5,0,39-7.6,39-28c0-20.4-7.7-46-39-46C31.9,11.8,24.1,37.4,24.1,57.8"/><path class="st26" d="M63.1,80.8c-20.8,0-37.8-7.1-38.9-26c0,1-0.1,2-0.1,3c0,20.4,17.5,28,39,28s39-7.6,39-28c0-1,0-2-0.1-3     C101,73.8,83.9,80.8,63.1,80.8z"/><path class="st31" d="M63.1,22.8c27.9,0,37.1,20.4,38.7,39.3c0.2-1.4,0.3-2.8,0.3-4.3c0-20.4-7.8-46-39-46c-31.3,0-39,25.6-39,46     c0,1.5,0.1,2.9,0.3,4.3C26,43.2,35.2,22.8,63.1,22.8z"/><path class="st2" d="M63.1,87.3c-26.1,0-40.5-10.5-40.5-29.5c0-14.3,3.9-47.5,40.5-47.5s40.5,33.2,40.5,47.5     C103.6,76.9,89.2,87.3,63.1,87.3z M63.1,13.3c-33.8,0-37.5,31.1-37.5,44.5c0,23.1,23.5,26.5,37.5,26.5s37.5-3.4,37.5-26.5     C100.6,44.5,97,13.3,63.1,13.3z"/></g><g id="Nose_3_"><path class="st2" d="M63.1,76.2c-3.8,0-6.9-2-6.9-4.4s3.1-7,6.9-7c3.8,0,6.9,4.5,6.9,7S66.9,76.2,63.1,76.2"/><path class="st2" d="M71.5,71.8c0,3.3-3.7,5.9-8.4,5.9s-8.4-2.6-8.4-5.9c0-3.3,3.8-8.5,8.4-8.5S71.5,68.5,71.5,71.8z M68.5,71.8     c0-1.7-2.5-5.5-5.4-5.5s-5.4,3.7-5.4,5.5c0,1.4,2.2,2.9,5.4,2.9S68.5,73.2,68.5,71.8z"/></g><g id="Eyes_5_"><circle class="st2" cx="79" cy="60.3" r="3"/><circle class="st2" cx="47.2" cy="60.3" r="3"/></g></g></g><g id="Mice"/><g id="Snake"/><g id="Lion"/><g id="Caterpillar"/><g id="Dolphin"/><g id="Penguin"/><g id="Deer"/><g id="Elephant"/><g id="Panda"/><g id="Giraffe"/><g id="Cow"/><g id="Monkey"/><g id="Rabbit"/><g id="Bear"/><g id="Zebra"/><g id="Crab"/><g id="Crocodile"/><g id="Frog"/><g id="Owl"/><g id="Layer_28"/><g id="Octopus"/><g id="Turtle"/><g id="Squirrel"/><g id="Duck"/><g id="Squid"/><g id="Unicorn"/><g id="Parrot"/><g id="Layer_36"/><g id="Cockroach"/><g id="Gorilla"/><g id="Tiger"/><g id="Goat"/><g id="Whale"/></svg>